<svg xmlns="http://www.w3.org/2000/svg" viewBox="1 94 56 56" fill="none">
  <path d="m28.68 98.01c-2.77 0-3.9 2.17-3.9 3.8v19.05c0 2.95 1.73 4.03 3.75 4.03s3.64-1.37 3.64-3.83v-19.25c0-2.17-1.23-3.8-3.49-3.8z" fill="url(#paint0_linear_238_6764)"/>
  <path d="m14.31 108.3c-5.61 5.07-8.31 10.97-8.31 17.52 0 11.61 9.57 22.25 22.41 22.25 13.17 0 23.77-11.24 23.77-22.84 0-6.55-3.19-12.95-8.76-17.27-2.34-1.7-6.34-0.17-6.29 3.02 0.03 1.66 0.92 2.64 1.86 3.5 4.09 3.86 5.62 7.32 5.62 11.31 0 8.48-7.45 14.83-15.84 14.66-8.61-0.18-15.66-6.52-15.66-15.36 0-4.16 2.32-8.97 5.27-11.47 1.63-1.37 1.98-2.7 1.75-4.22-0.41-2.62-3.48-3.05-5.82-1.1z" fill="url(#paint1_linear_238_6764)"/>
  <defs>
    <linearGradient id="paint0_linear_238_6764" x1="13.51" x2="237.4" y1="100.8" y2="148" gradientUnits="userSpaceOnUse">
      <stop offset="0" stop-color="#F19324"/>
      <stop offset="0.3333" stop-color="#EA592F"/>
      <stop offset="1" stop-color="#C6194A"/>
    </linearGradient>
    <linearGradient id="paint1_linear_238_6764" x1="10.17" x2="234" y1="111.4" y2="158.5" gradientUnits="userSpaceOnUse">
      <stop offset="0" stop-color="#F19324"/>
      <stop offset="0.3333" stop-color="#EA592F"/>
      <stop offset="1" stop-color="#C6194A"/>
    </linearGradient>
  </defs>
</svg>
